<svg id="Logo" xmlns="http://www.w3.org/2000/svg" width="304" height="188" viewBox="0 0 304 188">
  <rect id="Rectangle_13" data-name="Rectangle 13" width="127" height="24" rx="12" transform="translate(177 18)" fill="#efac78"/>
  <rect id="Rectangle_14" data-name="Rectangle 14" width="106" height="24" rx="12" transform="translate(177 42)" fill="#fae09b"/>
  <rect id="Rectangle_15" data-name="Rectangle 15" width="80" height="24" rx="12" transform="translate(177 66)" fill="#efac78"/>
  <rect id="Rectangle_16" data-name="Rectangle 16" width="53" height="24" rx="12" transform="translate(177 90)" fill="#fae09b"/>
  <rect id="Rectangle_9" data-name="Rectangle 9" width="127" height="24" rx="12" transform="translate(0 18)" fill="#efac78"/>
  <rect id="Rectangle_10" data-name="Rectangle 10" width="106" height="24" rx="12" transform="translate(21 42)" fill="#fae09b"/>
  <rect id="Rectangle_11" data-name="Rectangle 11" width="80" height="24" rx="12" transform="translate(47 66)" fill="#efac78"/>
  <rect id="Rectangle_12" data-name="Rectangle 12" width="53" height="24" rx="12" transform="translate(74 90)" fill="#fae09b"/>
  <g id="Rectangle_7" data-name="Rectangle 7" transform="translate(100)" fill="#513e52" stroke="#efac78" stroke-width="3">
    <rect width="104" height="174" rx="32" stroke="none"/>
    <rect x="1.5" y="1.5" width="101" height="171" rx="30.5" fill="none"/>
  </g>
  <circle id="Ellipse_1" data-name="Ellipse 1" cx="14" cy="14" r="14" transform="translate(138 24)" fill="#fae09b"/>
  <rect id="Rectangle_8" data-name="Rectangle 8" width="50" height="53" rx="14" transform="translate(127 78)" fill="#efac78"/>
  <rect id="Rectangle_17" data-name="Rectangle 17" width="143" height="37" rx="18.5" transform="translate(81 151)" fill="#efac78"/>
  <circle id="Ellipse_2" data-name="Ellipse 2" cx="4" cy="4" r="4" transform="translate(148 38)" fill="#513e52"/>
</svg>
