<?xml version="1.0" encoding="iso-8859-1"?>
<!-- Generator: Adobe Illustrator 19.0.0, SVG Export Plug-In . SVG Version: 6.00 Build 0)  -->
<svg version="1.1" id="Capa_1" xmlns="http://www.w3.org/2000/svg" xmlns:xlink="http://www.w3.org/1999/xlink" x="0px" y="0px"
	 viewBox="0 0 512 512" style="enable-background:new 0 0 512 512;" xml:space="preserve">
<rect x="200.628" y="288.585" style="fill:#ABFDFF;" width="15.453" height="116.122"/>
<path style="fill:#CC7400;" d="M230.774,395.329c0,12.382-10.037,50.79-22.419,50.79s-22.419-38.408-22.419-50.79
	c0-12.382,10.037-22.419,22.419-22.419C220.736,372.91,230.774,382.947,230.774,395.329z"/>
<path style="fill:#AA6100;" d="M185.935,395.329c0,12.382,10.037,50.79,22.419,50.79V372.91
	C195.972,372.91,185.935,382.947,185.935,395.329z"/>
<path style="fill:#D1E7F8;" d="M390.545,5.809L359.27,0.405c-5.981-1.033-12.136-0.076-17.52,2.725L78.318,140.179l33.043,54.856
	L371.246,59.83c5.385-2.801,9.701-7.292,12.288-12.782l13.526-28.712C399.559,13.033,396.321,6.807,390.545,5.809z"/>
<path style="fill:#B9D8F4;" d="M396.905,10.458c-1.22-2.344-3.473-4.15-6.361-4.649l-31.275-5.404
	c-5.981-1.033-12.136-0.076-17.52,2.725L78.318,140.179l16.852,27.257L396.905,10.458z"/>
<path style="fill:#57E5D0;" d="M383.534,47.047l13.526-28.712c2.498-5.303-0.741-11.528-6.517-12.526l-31.275-5.404
	c-5.981-1.033-12.136-0.076-17.52,2.725l-59.893,31.159c5.385-2.801,11.539-3.758,17.52-2.725l31.275,5.404
	c5.776,0.998,9.015,7.224,6.517,12.526l-13.526,28.712c-2.587,5.491-6.903,9.981-12.288,12.782l59.893-31.159
	C376.631,57.029,380.948,52.538,383.534,47.047z"/>
<path style="fill:#28C6AF;" d="M390.545,5.809L359.27,0.405c-5.981-1.033-12.136-0.076-17.52,2.725l-59.893,31.159
	c5.385-2.801,11.539-3.758,17.52-2.725l31.275,5.404c2.889,0.499,5.142,2.305,6.361,4.649l59.893-31.159
	C395.686,8.115,393.432,6.309,390.545,5.809z"/>
<path style="fill:#96C8EF;" d="M446.726,97.407l-26.551-17.39c-5.078-3.325-11.105-4.893-17.16-4.463L156.449,93.08l4.48,63.757
	l246.617-17.53c6.054-0.431,11.801-2.835,16.356-6.846l23.824-20.97C452.127,107.618,451.629,100.619,446.726,97.407z"/>
<path style="fill:#78B9EB;" d="M450.715,104.201c-0.188-2.635-1.538-5.188-3.99-6.794l-26.551-17.39
	c-5.078-3.325-11.105-4.893-17.16-4.463L156.449,93.08l2.24,31.879L450.715,104.201z"/>
<path style="fill:#FF5C5C;" d="M423.902,132.462l23.824-20.97c4.4-3.873,3.902-10.873-1.001-14.085l-26.551-17.39
	c-5.078-3.325-11.105-4.893-17.16-4.463l-67.343,4.786c6.054-0.431,12.083,1.137,17.16,4.463l26.551,17.392
	c4.904,3.212,5.401,10.211,1.001,14.085l-23.824,20.97c-4.556,4.01-10.302,6.415-16.356,6.846l67.343-4.786
	C413.6,138.877,419.347,136.472,423.902,132.462z"/>
<path style="fill:#FF3333;" d="M446.726,97.407l-26.551-17.39c-5.078-3.325-11.105-4.893-17.16-4.463l-67.343,4.786
	c6.054-0.431,12.083,1.137,17.16,4.463l26.55,17.392c2.452,1.606,3.802,4.159,3.99,6.794l67.343-4.786
	C450.527,101.566,449.178,99.013,446.726,97.407z"/>
<path style="fill:#D1E7F8;" d="M459.668,204.661l-18.055-26.104c-3.453-4.992-8.448-8.713-14.219-10.592L176.442,86.23
	l-22.597,59.859l253.756,82.647c5.771,1.88,12,1.814,17.73-0.188l29.965-10.464C460.829,216.154,463.003,209.481,459.668,204.661z"
	/>
<path style="fill:#B9D8F4;" d="M460.807,212.456c0.818-2.513,0.527-5.386-1.139-7.796l-18.055-26.103
	c-3.453-4.992-8.448-8.713-14.219-10.592L176.442,86.23l-11.299,29.93L460.807,212.456z"/>
<path style="fill:#FFEB99;" d="M425.331,228.55l29.965-10.464c5.534-1.933,7.707-8.605,4.373-13.425l-18.055-26.104
	c-3.453-4.992-8.448-8.713-14.219-10.592l-64.194-20.908c5.771,1.88,10.766,5.601,14.219,10.592l18.055,26.104
	c3.335,4.821,1.161,11.494-4.373,13.425l-29.965,10.464c-5.73,2.001-11.958,2.067-17.73,0.188l64.194,20.908
	C413.372,230.616,419.6,230.55,425.331,228.55z"/>
<path style="fill:#FFDE55;" d="M459.668,204.661l-18.055-26.104c-3.453-4.992-8.448-8.713-14.219-10.592l-64.194-20.908
	c5.771,1.88,10.766,5.601,14.219,10.592l18.055,26.104c1.667,2.411,1.957,5.284,1.139,7.796l64.194,20.908
	C461.625,209.945,461.335,207.071,459.668,204.661z"/>
<path style="fill:#96C8EF;" d="M451.595,300.979l-12.026-29.371c-2.3-5.617-6.379-10.324-11.612-13.4L153.844,97.109l-32.718,54.907
	L395.572,313.31c5.232,3.075,11.33,4.349,17.356,3.625l31.512-3.784C450.261,312.453,453.816,306.404,451.595,300.979z"/>
<path style="fill:#78B9EB;" d="M451.034,308.837c1.338-2.278,1.672-5.147,0.561-7.859l-12.026-29.371
	c-2.3-5.617-6.379-10.324-11.612-13.4L153.844,97.109l-16.359,27.453L451.034,308.837z"/>
<path style="fill:#57E5D0;" d="M412.929,316.935l31.512-3.784c5.82-0.698,9.376-6.749,7.155-12.174l-12.026-29.371
	c-2.3-5.617-6.379-10.324-11.612-13.4l-58.205-34.208c5.232,3.075,9.312,7.783,11.612,13.4l12.026,29.371
	c2.221,5.425-1.334,11.474-7.155,12.174l-31.512,3.784c-6.027,0.723-12.123-0.55-17.356-3.625l58.205,34.208
	C400.805,316.385,406.902,317.658,412.929,316.935z"/>
<path style="fill:#28C6AF;" d="M451.595,300.979l-12.026-29.371c-2.3-5.617-6.379-10.324-11.612-13.4L369.752,224
	c5.232,3.075,9.312,7.783,11.612,13.4l12.026,29.371c1.111,2.712,0.777,5.58-0.561,7.859l58.205,34.208
	C452.372,306.559,452.706,303.691,451.595,300.979z"/>
<path style="fill:#D1E7F8;" d="M419.346,399.639l-3.572-31.537c-0.683-6.031-3.325-11.671-7.523-16.055l-240.955-251.7
	l-46.169,44.198l240.955,251.699c4.197,4.384,9.717,7.271,15.712,8.216l31.352,4.943
	C414.936,410.316,420.005,405.464,419.346,399.639z"/>
<path style="fill:#B9D8F4;" d="M416.664,407.048c1.909-1.828,3.011-4.497,2.681-7.409l-3.572-31.537
	c-0.683-6.031-3.325-11.671-7.523-16.055l-240.954-251.7l-23.084,22.099L416.664,407.048z"/>
<path style="fill:#FF5C5C;" d="M377.794,404.46l31.352,4.943c5.791,0.913,10.859-3.939,10.2-9.764l-3.572-31.537
	c-0.683-6.031-3.325-11.671-7.523-16.055l-46.687-48.769c4.197,4.384,6.84,10.025,7.523,16.055l3.572,31.537
	c0.659,5.825-4.409,10.677-10.2,9.764l-31.352-4.943c-5.996-0.946-11.515-3.831-15.712-8.216l46.687,48.769
	C366.279,400.628,371.799,403.515,377.794,404.46z"/>
<path style="fill:#FF3333;" d="M419.346,399.639l-3.572-31.537c-0.683-6.031-3.325-11.671-7.523-16.055l-46.687-48.769
	c4.197,4.384,6.84,10.025,7.523,16.055l3.572,31.537c0.33,2.912-0.773,5.582-2.682,7.409l46.687,48.769
	C418.573,405.221,419.675,402.552,419.346,399.639z"/>
<path style="fill:#96C8EF;" d="M345.703,505.297l7.783-30.769c1.489-5.884,1.005-12.094-1.376-17.678l-136.68-320.515
	l-58.791,25.072l136.68,320.515c2.381,5.584,6.528,10.231,11.805,13.231l27.592,15.685
	C337.811,513.732,344.266,510.979,345.703,505.297z"/>
<path style="fill:#78B9EB;" d="M340.581,511.283c2.43-1.036,4.403-3.145,5.122-5.986l7.783-30.769
	c1.489-5.884,1.004-12.094-1.376-17.678l-136.68-320.515l-29.396,12.535L340.581,511.283z"/>
<path style="fill:#FFEB99;" d="M305.122,495.15l27.592,15.685c5.096,2.897,11.55,0.144,12.988-5.538l7.783-30.769
	c1.489-5.884,1.004-12.094-1.376-17.678l-26.483-62.102c2.381,5.584,2.864,11.794,1.376,17.678l-7.783,30.769
	c-1.437,5.682-7.892,8.435-12.989,5.538l-27.592-15.685c-5.277-3-9.423-7.647-11.805-13.231l26.483,62.102
	C295.699,487.503,299.846,492.152,305.122,495.15z"/>
<path style="fill:#FFDE55;" d="M345.703,505.297l7.783-30.769c1.489-5.884,1.004-12.094-1.376-17.678l-26.483-62.102
	c2.381,5.584,2.864,11.794,1.376,17.678l-7.783,30.769c-0.719,2.841-2.692,4.95-5.122,5.986l26.483,62.102
	C343.011,510.247,344.985,508.138,345.703,505.297z"/>
<polygon style="fill:#FF5C5C;" points="76.552,118.975 231.4,60.539 231.4,281.724 "/>
<polygon style="fill:#FF3333;" points="76.552,118.975 231.4,281.724 231.4,201.533 132.764,97.762 "/>
<path style="fill:#57E5D0;" d="M226.821,263.184l-124.35-138.426c-8.423-9.376-22.985-10.157-32.361-1.734l-11.782,10.584
	c-9.376,8.423-10.157,22.985-1.734,32.361l124.35,138.426c8.423,9.376,22.985,10.157,32.361,1.734l11.782-10.584
	C234.463,287.122,235.244,272.559,226.821,263.184z"/>
<path style="fill:#FFEB99;" d="M197.947,311.949l17.328-60.473l-71.707,12.459l36.346,40.459
	C184.653,309.671,191.338,312.225,197.947,311.949z"/>
<path style="fill:#28C6AF;" d="M203.882,283.789L79.532,145.364c-6.667-7.422-7.545-18.085-2.98-26.388
	c-2.302,0.961-4.489,2.293-6.443,4.049l-11.782,10.584c-9.376,8.423-10.157,22.985-1.734,32.361l124.35,138.426
	c8.423,9.376,22.985,10.157,32.361,1.734l11.782-10.584c1.954-1.755,3.512-3.787,4.714-5.973
	C221.057,293.224,210.549,291.212,203.882,283.789z"/>
<g>
	<polygon style="fill:#FFEB99;" points="92.939,206.429 164.646,193.971 144.598,263.936 	"/>
	<path style="fill:#FFEB99;" d="M51.009,147.231c-0.981,6.543,0.845,13.461,5.585,18.738l36.346,40.459l20.047-69.966
		L51.009,147.231z"/>
</g>
<g>
	<polygon style="fill:#FFDE55;" points="144.598,263.936 154.622,228.953 128.792,200.199 92.939,206.429 92.939,206.429 
		92.939,206.429 92.939,206.429 144.598,263.936 144.598,263.936 	"/>
	<path style="fill:#FFDE55;" d="M102.963,171.446l-23.43-26.083c-0.777-0.864-1.447-1.784-2.069-2.728l-26.455,4.597
		c-0.981,6.543,0.845,13.461,5.585,18.738l36.346,40.459l0,0L102.963,171.446z"/>
	<path style="fill:#FFDE55;" d="M203.882,283.789l-23.43-26.083l-35.853,6.23l0,0l36.346,40.459
		c4.74,5.277,11.424,7.83,18.033,7.554l7.397-25.812C205.502,285.419,204.659,284.654,203.882,283.789z"/>
</g>
<circle style="fill:#F21C1C;" cx="208.354" cy="288.585" r="44.741"/>
<circle style="fill:#57E5D0;" cx="208.354" cy="288.585" r="22.019"/>
<path style="fill:#28C6AF;" d="M208.354,288.583c0-8.146,4.435-15.241,11.01-19.049c-3.241-1.878-6.994-2.97-11.01-2.97
	c-12.161,0-22.019,9.859-22.019,22.019s9.859,22.019,22.019,22.019c4.016,0,7.769-1.092,11.01-2.97
	C212.789,303.824,208.354,296.728,208.354,288.583z"/>
<g>
	<path style="fill:#FF728B;" d="M86.059,170.575c-2.076,0.577-4.344,0.298-6.226-0.757c-1.885-1.065-3.292-2.865-3.871-4.951
		c-0.577-2.076-0.299-4.344,0.766-6.228c1.065-1.884,2.865-3.292,4.941-3.869c2.086-0.579,4.354-0.302,6.239,0.764
		c1.875,1.068,3.282,2.868,3.859,4.944c0.579,2.086,0.301,4.354-0.754,6.236C89.945,168.588,88.145,169.996,86.059,170.575z"/>
	<path style="fill:#FF728B;" d="M137.141,227.439c-2.076,0.577-4.344,0.298-6.226-0.757c-1.885-1.065-3.292-2.865-3.871-4.951
		c-0.577-2.076-0.299-4.344,0.766-6.228c1.065-1.885,2.865-3.292,4.941-3.869c2.086-0.579,4.354-0.302,6.239,0.764
		c1.875,1.068,3.282,2.868,3.859,4.944c0.579,2.086,0.301,4.354-0.754,6.236C141.026,225.452,139.227,226.86,137.141,227.439z"/>
</g>
<g>
</g>
<g>
</g>
<g>
</g>
<g>
</g>
<g>
</g>
<g>
</g>
<g>
</g>
<g>
</g>
<g>
</g>
<g>
</g>
<g>
</g>
<g>
</g>
<g>
</g>
<g>
</g>
<g>
</g>
</svg>
